# xmcd CD database file
#
# Track frame offsets:
#	150
#	17700
#	32225
#	46220
#	61757
#	75270
#	95032
#	107700
#	121770
#	139610
#	155925
#	177690
#
# Disc length: 2549 seconds
#
# Revision: 0
# Processed by: cddbd v1.5.1PL2 Copyright (c) Steve Scherf et al.
# Submitted via: CDex 1.51
#
DISCID=9a09f30c
DTITLE=The Dick Morrissey Quartet - It's Morrissey, MAN !
DYEAR=1998
DGENRE=Jazz
TTITLE0=St. Thomas
TTITLE1=Cherry Blue
TTITLE2=A Bench In The Park
TTITLE3=Sancticity
TTITLE4=Mildew
TTITLE5=Puffing Billy
TTITLE6=Gurney Was Here (Or Blue Waltz)
TTITLE7=Happy Feet
TTITLE8=Where Is Love?
TTITLE9=Dancing In The Dark
TTITLE10=Willow, Weep For Me
TTITLE11=Jellyroll
EXTD=YEAR: 1998
EXTT0=
EXTT1=
EXTT2=
EXTT3=
EXTT4=
EXTT5=
EXTT6=
EXTT7=
EXTT8=
EXTT9=
EXTT10=
EXTT11=
PLAYORDER=
